<svg width="29" height="29" viewBox="0 0 29 29" fill="none" xmlns="http://www.w3.org/2000/svg">
<path fill-rule="evenodd" clip-rule="evenodd" d="M16.7732 20.0606C19.5987 19.727 22.6039 18.6996 22.6039 13.8193C22.6039 12.4322 22.1154 11.3017 21.3198 10.4283C21.4482 10.0947 21.8587 8.83588 21.165 7.08948C21.165 7.08948 20.1376 6.75541 17.7235 8.37347C16.6961 8.09123 15.5661 7.91111 14.513 7.91111C13.4339 7.91111 12.3034 8.09123 11.3017 8.37347C8.86148 6.75541 7.83413 7.08948 7.83413 7.08948C7.1408 8.83588 7.55189 10.0947 7.68019 10.4283C6.88376 11.3017 6.39575 12.4322 6.39575 13.8193C6.39575 18.6996 9.40093 19.727 12.2264 20.0606C11.8671 20.3694 11.5331 20.9597 11.4048 21.7818C10.6853 22.0898 8.81017 22.6808 7.68019 20.7287C7.68019 20.7287 7.01211 19.5217 5.75372 19.4447C5.75372 19.4447 4.49494 19.4191 5.65104 20.2146C5.65104 20.2146 6.49838 20.6004 7.06382 22.0641C7.06382 22.0641 7.83414 24.5047 11.3786 23.7338V25.9169C11.3786 26.2515 11.1221 26.6364 10.48 26.5338C5.44537 24.8639 1.82383 20.0862 1.82383 14.487C1.82383 7.47447 7.50012 1.79823 14.513 1.79823C21.4995 1.79823 27.2018 7.47452 27.1762 14.487C27.1762 20.0862 23.5542 24.8383 18.5199 26.5338C17.8775 26.6621 17.6208 26.2772 17.6208 25.9169V22.3985C17.6209 21.2163 17.2351 20.4464 16.7732 20.0606ZM29 14.513C29 6.49838 22.5012 0 14.513 0C6.49838 0 0 6.49838 0 14.513C0 22.5012 6.49838 29 14.513 29C22.5012 29 29 22.5012 29 14.513Z" fill="white"/>
</svg>
