<svg width="29" height="29" viewBox="0 0 29 29" fill="none" xmlns="http://www.w3.org/2000/svg">
<mask id="mask0_1:9" style="mask-type:alpha" maskUnits="userSpaceOnUse" x="0" y="0" width="29" height="29">
<path d="M0 28.9966H28.9909V0.00915527H0V28.9966Z" fill="white"/>
</mask>
<g mask="url(#mask0_1:9)">
<path fill-rule="evenodd" clip-rule="evenodd" d="M14.4955 0.00915527C10.5587 0.00915527 10.0651 0.0258418 8.51898 0.0963854C6.97611 0.166756 5.92239 0.411818 5.00037 0.770175C4.04717 1.14056 3.23879 1.6362 2.43289 2.44205C1.62705 3.24795 1.1314 4.05632 0.76102 5.00953C0.402663 5.93154 0.157601 6.98527 0.0872302 8.52814C0.0166865 10.0742 0 10.5679 0 14.5046C0 18.4413 0.0166865 18.9349 0.0872302 20.481C0.157601 22.0239 0.402663 23.0776 0.76102 23.9996C1.1314 24.9528 1.62705 25.7612 2.43289 26.5671C3.23879 27.373 4.04717 27.8686 5.00037 28.239C5.92239 28.5973 6.97611 28.8424 8.51898 28.9128C10.0651 28.9833 10.5587 29 14.4955 29C18.4321 29 18.9258 28.9833 20.4719 28.9128C22.0147 28.8424 23.0685 28.5973 23.9905 28.239C24.9437 27.8686 25.7521 27.373 26.558 26.5671C27.3638 25.7612 27.8594 24.9528 28.2299 23.9996C28.5882 23.0776 28.8333 22.0239 28.9036 20.481C28.9742 18.9349 28.9909 18.4413 28.9909 14.5046C28.9909 10.5679 28.9742 10.0742 28.9036 8.52814C28.8333 6.98527 28.5882 5.93154 28.2299 5.00953C27.8594 4.05632 27.3638 3.24795 26.558 2.44205C25.7521 1.6362 24.9437 1.14056 23.9905 0.770175C23.0685 0.411818 22.0147 0.166756 20.4719 0.0963854C18.9258 0.0258418 18.4321 0.00915527 14.4955 0.00915527ZM14.4955 2.62094C18.3659 2.62094 18.8243 2.63573 20.3528 2.70546C21.7661 2.76991 22.5336 3.00605 23.0444 3.20456C23.721 3.46752 24.2039 3.78163 24.7111 4.2889C25.2184 4.79611 25.5325 5.27898 25.7954 5.95559C25.994 6.46637 26.2301 7.2339 26.2945 8.64719C26.3643 10.1757 26.3791 10.6341 26.3791 14.5046C26.3791 18.375 26.3643 18.8335 26.2945 20.362C26.2301 21.7753 25.994 22.5428 25.7954 23.0536C25.5325 23.7302 25.2184 24.2131 24.7111 24.7203C24.2039 25.2275 23.721 25.5416 23.0444 25.8046C22.5336 26.0031 21.7661 26.2393 20.3528 26.3037C18.8246 26.3734 18.3661 26.3882 14.4955 26.3882C10.6247 26.3882 10.1663 26.3734 8.63803 26.3037C7.22474 26.2393 6.45722 26.0031 5.94644 25.8046C5.26983 25.5416 4.78696 25.2275 4.27974 24.7203C3.77253 24.2131 3.45837 23.7302 3.19541 23.0536C2.9969 22.5428 2.76075 21.7753 2.69631 20.362C2.62657 18.8335 2.61178 18.375 2.61178 14.5046C2.61178 10.6341 2.62657 10.1757 2.69631 8.64719C2.76075 7.2339 2.9969 6.46637 3.19541 5.95559C3.45837 5.27898 3.77247 4.79611 4.27974 4.2889C4.78696 3.78163 5.26983 3.46752 5.94644 3.20456C6.45722 3.00605 7.22474 2.76991 8.63803 2.70546C10.1665 2.63573 10.625 2.62094 14.4955 2.62094Z" fill="white"/>
</g>
<path fill-rule="evenodd" clip-rule="evenodd" d="M14.4954 19.3364C11.8269 19.3364 9.6636 17.1731 9.6636 14.5046C9.6636 11.836 11.8269 9.67277 14.4954 9.67277C17.164 9.67277 19.3272 11.836 19.3272 14.5046C19.3272 17.1731 17.164 19.3364 14.4954 19.3364ZM14.4954 7.06099C10.3844 7.06099 7.05182 10.3936 7.05182 14.5046C7.05182 18.6156 10.3844 21.9482 14.4954 21.9482C18.6064 21.9482 21.939 18.6156 21.939 14.5046C21.939 10.3936 18.6064 7.06099 14.4954 7.06099Z" fill="white"/>
<path fill-rule="evenodd" clip-rule="evenodd" d="M23.9726 6.7669C23.9726 7.72758 23.1938 8.50633 22.2331 8.50633C21.2725 8.50633 20.4937 7.72758 20.4937 6.7669C20.4937 5.80622 21.2725 5.02742 22.2331 5.02742C23.1938 5.02742 23.9726 5.80622 23.9726 6.7669Z" fill="white"/>
</svg>
