<svg width="27" height="27" viewBox="0 0 27 27" fill="none" xmlns="http://www.w3.org/2000/svg">
<g clip-path="url(#clip0_1:22)">
<mask id="mask0_1:22" style="mask-type:alpha" maskUnits="userSpaceOnUse" x="-1" y="0" width="36" height="30">
<path d="M-1 29.95H34.388V0H-1V29.95Z" fill="white"/>
</mask>
<g mask="url(#mask0_1:22)">
<path fill-rule="evenodd" clip-rule="evenodd" d="M23.0084 22.9011H19.004V16.6637C19.004 15.1766 18.9785 13.2632 16.9235 13.2632C14.8392 13.2632 14.5212 14.8839 14.5212 16.5577V22.9011H10.5213V10.0754H14.3599V11.8291H14.4154C14.9494 10.8205 16.256 9.75739 18.2038 9.75739C22.2591 9.75739 23.0084 12.4129 23.0084 15.8671V22.9011ZM6.00617 8.32327C4.71988 8.32327 3.6826 7.28781 3.6826 6.01121C3.6826 4.73536 4.71988 3.69989 6.00617 3.69989C7.2872 3.69989 8.32673 4.73536 8.32673 6.01121C8.32673 7.28781 7.2872 8.32327 6.00617 8.32327ZM4.00061 22.9011H8.00947V10.0754H4.00061V22.9011ZM25.0027 0H1.99131C0.892525 0 0 0.867489 0 1.93804V24.9362C0 26.0068 0.892525 26.8757 1.99131 26.8757H25.0027C26.1037 26.8757 27 26.0068 27 24.9362V1.93804C27 0.867489 26.1037 0 25.0027 0Z" fill="white"/>
</g>
</g>
<defs>
<clipPath id="clip0_1:22">
<rect width="27" height="27" fill="white"/>
</clipPath>
</defs>
</svg>
