<svg width="71" height="38" viewBox="0 0 71 38" fill="none" xmlns="http://www.w3.org/2000/svg">
<path fill-rule="evenodd" clip-rule="evenodd" d="M10.8193 6L10.5991 7.74405L20.0938 7.76495L23.6502 7.77286L7.2625 29.7709L7.01208 31.7491L7.0079 31.7533V31.783L7 31.8453H7.0079V31.8597H13.6055L16.4952 31.8662L22.7039 31.8801L25.4426 31.8866L32.199 31.901L34.1391 31.9057L39.2398 31.9173L41.1999 31.9219L43.1534 31.9256L45.1326 31.9303L45.3337 30.1858L45.9999 24.922L53.1095 17.4585L59.5769 31.9619L61.8989 31.9679L54.604 15.9751L62.9995 7.00165L60.6209 7.02301L51.1917 17.0645L50.6899 15.9667L59.9184 6.11011L57.5625 6.10454L42.4278 22.2247L44.4715 6.07526L42.5109 6.07108L39.4605 30.1737L34.3598 30.1616L32.4202 30.1574L27.6879 30.1467L29.5662 15.4668L35.2509 7.79933L35.4716 6.05528L30.6678 6.04413L28.7142 6.03995L25.9759 6.03392L20.3145 6.02138L10.8193 6ZM9.22025 30.1054L25.7548 7.7775L28.4935 7.78354L27.5388 15.327L16.7577 29.7923L16.7163 30.1221L9.22025 30.1054ZM30.5488 7.78818L33.1454 7.79422L30.0099 11.9987L30.5488 7.78818ZM46.6006 20.1796L49.1963 17.4497L49.7208 18.6269L46.3405 22.2339L46.6006 20.1796ZM22.925 30.1361L18.7084 30.1263L27.0984 18.8076L25.6637 30.1421L22.925 30.1361ZM41.4201 30.1779L42.0863 24.9127L44.3395 22.5462L43.3732 30.1821L41.4201 30.1779Z" fill="white"/>
<rect x="0.75" y="0.75" width="69.5" height="36.5" stroke="white" stroke-width="1.5"/>
</svg>
